PathFileType	4	(X/Y/Z)	E:/New_biomech_experiments/Elbow Flexion/Shreyas_25_06_24_elbow_flexion/Session 2024-06-26/Shreyas_ElbFlex_pp_t02_26_06_24.trc	
DataRate	CameraRate	NumFrames	NumMarkers	Units	OrigDataRate	OrigDataStartFrame	OrigNumFrames	
120.00	120.00	24	19	m	120.00	4229	4832	
Frame#	Time	LFHD			LBHD			T10			C7			RBHD			PRSHO			RSHO			STRN			RFHD			CLAV			RWRA			RWRB			ARSHO			MRELB			RFRM			RHAND			RELB			RUPA			MRHAND			
		X1	Y1	Z1	X2	Y2	Z2	X3	Y3	Z3	X4	Y4	Z4	X5	Y5	Z5	X6	Y6	Z6	X7	Y7	Z7	X8	Y8	Z8	X9	Y9	Z9	X10	Y10	Z10	X11	Y11	Z11	X12	Y12	Z12	X13	Y13	Z13	X14	Y14	Z14	X15	Y15	Z15	X16	Y16	Z16	X17	Y17	Z17	X18	Y18	Z18	X19	Y19	Z19	

4229	35.233	0.07847	1.83812	-0.06770	-0.02697	1.73661	-0.08616	-0.08421	1.34064	-0.03712	-0.05457	1.54922	-0.02575	-0.04234	1.75811	0.05015	-0.08920	1.45472	0.10158	0.02784	1.50496	0.18807	0.17662	1.34215	-0.01757	0.06080	1.82453	0.05950	0.14102	1.46702	-0.01374	0.25358	1.15001	0.14347	0.26313	1.11930	0.23796	0.11579	1.45903	0.09775	-0.00220	1.14174	0.13835	0.14022	1.15946	0.24152	0.38940	1.13570	0.13466	0.00622	1.18834	0.24950	0.01102	1.31040	0.23097	0.35662	1.09842	0.24477 
4230	35.242	0.07860	1.83811	-0.06764	-0.02688	1.73666	-0.08610	-0.08425	1.34071	-0.03713	-0.05451	1.54921	-0.02573	-0.04222	1.75814	0.05022	-0.08915	1.45469	0.10157	0.02788	1.50492	0.18809	0.17666	1.34213	-0.01757	0.06093	1.82452	0.05956	0.14105	1.46699	-0.01374	0.25357	1.14990	0.14346	0.26310	1.11920	0.23796	0.11582	1.45899	0.09776	-0.00221	1.14170	0.13833	0.14020	1.15938	0.24151	0.38936	1.13548	0.13465	0.00622	1.18830	0.24948	0.01103	1.31035	0.23096	0.35658	1.09828	0.24478 
4231	35.250	0.07872	1.83810	-0.06758	-0.02680	1.73668	-0.08604	-0.08435	1.34084	-0.03714	-0.05446	1.54921	-0.02571	-0.04211	1.75816	0.05029	-0.08911	1.45467	0.10157	0.02791	1.50488	0.18811	0.17669	1.34212	-0.01757	0.06107	1.82452	0.05962	0.14108	1.46695	-0.01375	0.25356	1.14981	0.14345	0.26307	1.11912	0.23796	0.11585	1.45895	0.09777	-0.00222	1.14167	0.13831	0.14019	1.15931	0.24149	0.38931	1.13530	0.13463	0.00620	1.18825	0.24946	0.01103	1.31031	0.23095	0.35653	1.09816	0.24479 
4232	35.258	0.07884	1.83809	-0.06751	-0.02671	1.73671	-0.08598	-0.08423	1.34076	-0.03716	-0.05441	1.54920	-0.02569	-0.04200	1.75818	0.05035	-0.08908	1.45465	0.10156	0.02794	1.50484	0.18813	0.17673	1.34210	-0.01756	0.06119	1.82451	0.05968	0.14110	1.46691	-0.01375	0.25355	1.14974	0.14345	0.26305	1.11904	0.23796	0.11588	1.45890	0.09777	-0.00223	1.14164	0.13828	0.14017	1.15925	0.24147	0.38928	1.13515	0.13462	0.00619	1.18821	0.24943	0.01104	1.31027	0.23094	0.35649	1.09807	0.24480 
4233	35.267	0.07896	1.83809	-0.06744	-0.02663	1.73675	-0.08591	-0.08387	1.34049	-0.03717	-0.05436	1.54920	-0.02567	-0.04190	1.75820	0.05042	-0.08904	1.45463	0.10156	0.02797	1.50480	0.18815	0.17676	1.34208	-0.01756	0.06131	1.82450	0.05975	0.14113	1.46688	-0.01375	0.25353	1.14969	0.14344	0.26302	1.11899	0.23796	0.11591	1.45886	0.09779	-0.00225	1.14161	0.13826	0.14015	1.15920	0.24145	0.38925	1.13505	0.13462	0.00617	1.18816	0.24941	0.01104	1.31024	0.23093	0.35645	1.09800	0.24481 
4234	35.275	0.07907	1.83809	-0.06737	-0.02654	1.73681	-0.08584	-0.08355	1.34025	-0.03718	-0.05431	1.54919	-0.02565	-0.04181	1.75821	0.05049	-0.08900	1.45462	0.10155	0.02799	1.50476	0.18817	0.17679	1.34207	-0.01756	0.06143	1.82449	0.05982	0.14116	1.46685	-0.01374	0.25352	1.14964	0.14343	0.26300	1.11895	0.23795	0.11594	1.45882	0.09780	-0.00226	1.14158	0.13823	0.14012	1.15916	0.24142	0.38922	1.13498	0.13462	0.00615	1.18812	0.24938	0.01103	1.31020	0.23092	0.35642	1.09794	0.24481 
4235	35.283	0.07917	1.83810	-0.06730	-0.02645	1.73687	-0.08577	-0.08339	1.34015	-0.03720	-0.05426	1.54919	-0.02563	-0.04172	1.75822	0.05055	-0.08897	1.45461	0.10154	0.02801	1.50472	0.18819	0.17682	1.34205	-0.01756	0.06153	1.82448	0.05989	0.14120	1.46684	-0.01372	0.25350	1.14962	0.14342	0.26298	1.11893	0.23794	0.11597	1.45878	0.09781	-0.00227	1.14156	0.13819	0.14010	1.15912	0.24140	0.38920	1.13491	0.13460	0.00612	1.18807	0.24935	0.01103	1.31016	0.23090	0.35639	1.09791	0.24481 
4236	35.292	0.07928	1.83810	-0.06722	-0.02636	1.73691	-0.08570	-0.08340	1.34018	-0.03721	-0.05421	1.54919	-0.02561	-0.04164	1.75822	0.05061	-0.08894	1.45459	0.10153	0.02803	1.50468	0.18821	0.17686	1.34203	-0.01755	0.06164	1.82447	0.05996	0.14125	1.46684	-0.01368	0.25349	1.14960	0.14341	0.26296	1.11891	0.23793	0.11599	1.45874	0.09783	-0.00228	1.14153	0.13816	0.14008	1.15909	0.24137	0.38916	1.13484	0.13458	0.00610	1.18803	0.24932	0.01102	1.31012	0.23089	0.35636	1.09789	0.24481 
4237	35.300	0.07938	1.83811	-0.06715	-0.02626	1.73695	-0.08562	-0.08340	1.34022	-0.03722	-0.05417	1.54919	-0.02559	-0.04156	1.75822	0.05066	-0.08891	1.45456	0.10153	0.02805	1.50464	0.18823	0.17689	1.34201	-0.01754	0.06173	1.82446	0.06004	0.14129	1.46684	-0.01364	0.25348	1.14959	0.14340	0.26294	1.11891	0.23792	0.11602	1.45870	0.09784	-0.00228	1.14151	0.13812	0.14005	1.15907	0.24134	0.38915	1.13481	0.13457	0.00608	1.18799	0.24929	0.01101	1.31008	0.23088	0.35633	1.09788	0.24481 
4238	35.308	0.07947	1.83812	-0.06707	-0.02615	1.73700	-0.08554	-0.08326	1.34013	-0.03723	-0.05412	1.54919	-0.02557	-0.04149	1.75823	0.05071	-0.08888	1.45454	0.10153	0.02807	1.50461	0.18826	0.17692	1.34198	-0.01753	0.06182	1.82444	0.06011	0.14132	1.46683	-0.01361	0.25347	1.14959	0.14338	0.26292	1.11890	0.23791	0.11604	1.45866	0.09786	-0.00228	1.14148	0.13808	0.14003	1.15905	0.24132	0.38916	1.13484	0.13459	0.00606	1.18796	0.24926	0.01101	1.31005	0.23087	0.35631	1.09788	0.24481 
4239	35.317	0.07957	1.83814	-0.06699	-0.02603	1.73705	-0.08546	-0.08313	1.34004	-0.03725	-0.05407	1.54920	-0.02556	-0.04143	1.75823	0.05076	-0.08885	1.45452	0.10153	0.02809	1.50457	0.18828	0.17695	1.34196	-0.01753	0.06190	1.82443	0.06019	0.14136	1.46681	-0.01358	0.25347	1.14960	0.14337	0.26291	1.11890	0.23789	0.11607	1.45862	0.09788	-0.00229	1.14146	0.13805	0.14001	1.15903	0.24129	0.38919	1.13492	0.13463	0.00604	1.18792	0.24923	0.01100	1.31001	0.23086	0.35628	1.09788	0.24481 
4240	35.325	0.07967	1.83815	-0.06691	-0.02590	1.73710	-0.08537	-0.08313	1.34008	-0.03726	-0.05403	1.54920	-0.02554	-0.04137	1.75823	0.05080	-0.08882	1.45451	0.10152	0.02810	1.50454	0.18830	0.17698	1.34194	-0.01751	0.06198	1.82441	0.06026	0.14140	1.46681	-0.01355	0.25346	1.14962	0.14336	0.26290	1.11891	0.23787	0.11610	1.45859	0.09789	-0.00229	1.14145	0.13801	0.14000	1.15902	0.24127	0.38921	1.13500	0.13466	0.00602	1.18789	0.24920	0.01099	1.30997	0.23084	0.35626	1.09789	0.24480 
4241	35.333	0.07976	1.83817	-0.06684	-0.02577	1.73715	-0.08528	-0.08313	1.34010	-0.03727	-0.05398	1.54920	-0.02552	-0.04131	1.75823	0.05084	-0.08880	1.45450	0.10152	0.02812	1.50451	0.18833	0.17702	1.34191	-0.01750	0.06205	1.82440	0.06033	0.14144	1.46680	-0.01351	0.25346	1.14964	0.14335	0.26289	1.11892	0.23786	0.11612	1.45856	0.09791	-0.00229	1.14143	0.13797	0.13998	1.15901	0.24124	0.38922	1.13506	0.13467	0.00600	1.18785	0.24917	0.01099	1.30994	0.23083	0.35625	1.09791	0.24480 
4242	35.342	0.07986	1.83819	-0.06676	-0.02564	1.73721	-0.08520	-0.08297	1.34000	-0.03729	-0.05394	1.54921	-0.02551	-0.04126	1.75823	0.05088	-0.08877	1.45449	0.10151	0.02813	1.50448	0.18835	0.17704	1.34188	-0.01749	0.06212	1.82438	0.06041	0.14147	1.46678	-0.01348	0.25345	1.14967	0.14334	0.26288	1.11894	0.23784	0.11615	1.45852	0.09793	-0.00229	1.14141	0.13793	0.13996	1.15900	0.24121	0.38923	1.13511	0.13468	0.00598	1.18782	0.24914	0.01098	1.30991	0.23082	0.35624	1.09794	0.24479 
4243	35.350	0.07995	1.83820	-0.06669	-0.02553	1.73726	-0.08513	-0.08280	1.33988	-0.03730	-0.05389	1.54921	-0.02549	-0.04121	1.75823	0.05091	-0.08874	1.45448	0.10151	0.02815	1.50445	0.18837	0.17707	1.34185	-0.01749	0.06218	1.82437	0.06048	0.14150	1.46676	-0.01347	0.25345	1.14969	0.14332	0.26287	1.11897	0.23782	0.11617	1.45849	0.09795	-0.00229	1.14139	0.13789	0.13994	1.15900	0.24119	0.38925	1.13520	0.13470	0.00596	1.18779	0.24912	0.01098	1.30987	0.23081	0.35622	1.09798	0.24478 
4244	35.358	0.08004	1.83822	-0.06662	-0.02542	1.73730	-0.08507	-0.08274	1.33986	-0.03731	-0.05385	1.54922	-0.02548	-0.04116	1.75822	0.05094	-0.08871	1.45447	0.10150	0.02817	1.50442	0.18839	0.17709	1.34182	-0.01748	0.06224	1.82435	0.06055	0.14152	1.46672	-0.01346	0.25344	1.14972	0.14330	0.26286	1.11900	0.23780	0.11619	1.45845	0.09797	-0.00228	1.14138	0.13786	0.13993	1.15901	0.24116	0.38927	1.13530	0.13471	0.00595	1.18776	0.24909	0.01097	1.30984	0.23079	0.35622	1.09804	0.24477 
4245	35.367	0.08012	1.83825	-0.06656	-0.02532	1.73733	-0.08502	-0.08280	1.33995	-0.03733	-0.05380	1.54923	-0.02546	-0.04112	1.75822	0.05097	-0.08869	1.45447	0.10150	0.02818	1.50439	0.18842	0.17711	1.34177	-0.01748	0.06229	1.82434	0.06062	0.14154	1.46667	-0.01347	0.25344	1.14975	0.14328	0.26286	1.11905	0.23778	0.11622	1.45842	0.09798	-0.00228	1.14136	0.13783	0.13991	1.15902	0.24113	0.38929	1.13538	0.13472	0.00593	1.18773	0.24906	0.01097	1.30981	0.23078	0.35622	1.09812	0.24477 
4246	35.375	0.08020	1.83828	-0.06650	-0.02523	1.73736	-0.08498	-0.08283	1.34001	-0.03734	-0.05376	1.54924	-0.02545	-0.04107	1.75822	0.05100	-0.08866	1.45447	0.10149	0.02820	1.50437	0.18844	0.17713	1.34172	-0.01749	0.06234	1.82432	0.06069	0.14155	1.46661	-0.01349	0.25343	1.14978	0.14326	0.26286	1.11911	0.23777	0.11624	1.45839	0.09800	-0.00228	1.14134	0.13780	0.13990	1.15903	0.24110	0.38930	1.13546	0.13471	0.00592	1.18770	0.24903	0.01097	1.30977	0.23077	0.35622	1.09821	0.24476 
4247	35.383	0.08029	1.83830	-0.06643	-0.02515	1.73739	-0.08494	-0.08268	1.33992	-0.03735	-0.05371	1.54924	-0.02544	-0.04103	1.75821	0.05102	-0.08863	1.45447	0.10149	0.02822	1.50434	0.18845	0.17715	1.34166	-0.01750	0.06239	1.82430	0.06076	0.14157	1.46656	-0.01349	0.25342	1.14982	0.14323	0.26286	1.11918	0.23775	0.11626	1.45836	0.09802	-0.00227	1.14133	0.13778	0.13988	1.15905	0.24107	0.38931	1.13553	0.13469	0.00590	1.18768	0.24901	0.01096	1.30974	0.23075	0.35622	1.09831	0.24475 
4248	35.392	0.08037	1.83831	-0.06637	-0.02507	1.73742	-0.08490	-0.08250	1.33980	-0.03736	-0.05367	1.54925	-0.02543	-0.04099	1.75821	0.05105	-0.08861	1.45447	0.10148	0.02823	1.50432	0.18847	0.17716	1.34160	-0.01752	0.06243	1.82429	0.06083	0.14160	1.46654	-0.01348	0.25341	1.14986	0.14321	0.26286	1.11925	0.23773	0.11628	1.45833	0.09804	-0.00227	1.14131	0.13776	0.13986	1.15908	0.24105	0.38930	1.13561	0.13467	0.00589	1.18766	0.24898	0.01096	1.30971	0.23074	0.35623	1.09841	0.24473 
4249	35.400	0.08045	1.83832	-0.06631	-0.02500	1.73744	-0.08487	-0.08242	1.33978	-0.03737	-0.05363	1.54926	-0.02542	-0.04095	1.75820	0.05108	-0.08858	1.45448	0.10147	0.02825	1.50430	0.18849	0.17717	1.34155	-0.01753	0.06248	1.82427	0.06091	0.14163	1.46652	-0.01345	0.25340	1.14991	0.14318	0.26286	1.11932	0.23771	0.11630	1.45830	0.09805	-0.00226	1.14130	0.13774	0.13985	1.15911	0.24102	0.38929	1.13569	0.13464	0.00587	1.18764	0.24897	0.01095	1.30968	0.23073	0.35623	1.09851	0.24471 
4250	35.408	0.08052	1.83833	-0.06624	-0.02493	1.73746	-0.08483	-0.08245	1.33984	-0.03738	-0.05359	1.54927	-0.02541	-0.04091	1.75819	0.05111	-0.08856	1.45449	0.10146	0.02826	1.50427	0.18850	0.17719	1.34151	-0.01753	0.06253	1.82426	0.06098	0.14166	1.46652	-0.01342	0.25338	1.14998	0.14316	0.26286	1.11940	0.23769	0.11632	1.45827	0.09807	-0.00226	1.14129	0.13772	0.13983	1.15914	0.24099	0.38928	1.13577	0.13461	0.00586	1.18762	0.24895	0.01095	1.30966	0.23072	0.35623	1.09862	0.24469 
4251	35.417	0.08060	1.83833	-0.06618	-0.02487	1.73748	-0.08480	-0.08243	1.33986	-0.03739	-0.05355	1.54928	-0.02540	-0.04087	1.75819	0.05114	-0.08853	1.45448	0.10145	0.02828	1.50425	0.18852	0.17721	1.34148	-0.01753	0.06257	1.82425	0.06105	0.14169	1.46650	-0.01340	0.25336	1.15005	0.14313	0.26286	1.11947	0.23766	0.11635	1.45824	0.09808	-0.00227	1.14128	0.13770	0.13981	1.15917	0.24097	0.38926	1.13585	0.13457	0.00584	1.18760	0.24894	0.01094	1.30963	0.23071	0.35624	1.09872	0.24466 
4252	35.425	0.08067	1.83833	-0.06612	-0.02481	1.73750	-0.08476	-0.08223	1.33972	-0.03740	-0.05351	1.54929	-0.02539	-0.04083	1.75818	0.05118	-0.08851	1.45448	0.10145	0.02830	1.50424	0.18853	0.17722	1.34145	-0.01753	0.06262	1.82423	0.06112	0.14172	1.46650	-0.01338	0.25335	1.15012	0.14311	0.26286	1.11955	0.23763	0.11636	1.45822	0.09809	-0.00228	1.14127	0.13769	0.13979	1.15920	0.24095	0.38924	1.13592	0.13452	0.00582	1.18759	0.24893	0.01093	1.30961	0.23071	0.35624	1.09882	0.24463 
